<svg id="logoipsum-logo-1" xmlns="http://www.w3.org/2000/svg" width="114.697" height="26.738" viewBox="0 0 114.697 26.738">
  <path id="Path_6" data-name="Path 6" d="M38.51,11.176h2.905V22.942H38.51Zm4.064,7.341A4.281,4.281,0,0,1,47.1,13.855a4.281,4.281,0,0,1,4.526,4.661c0,2.915-1.747,4.68-4.526,4.68S42.574,21.494,42.574,18.516Zm6.173,0c0-1.6-.625-2.543-1.62-2.543s-1.611.905-1.611,2.543.615,2.534,1.611,2.534,1.638-.9,1.638-2.525Zm4.037,5.033H55.59a1.5,1.5,0,0,0,1.575.905c1.113,0,1.693-.6,1.693-1.484V21.34h.009a2.779,2.779,0,0,1-2.715,1.584c-2.127,0-3.539-1.62-3.539-4.408s1.349-4.526,3.621-4.526A2.779,2.779,0,0,1,58.948,15.7h-.081V14.063h2.878v8.816c0,2.127-1.883,3.458-4.652,3.458-2.516-.009-4.127-1.159-4.29-2.779Zm6.082-5.033c0-1.421-.652-2.317-1.684-2.317s-1.665.905-1.665,2.317.625,2.245,1.665,2.245S58.866,19.991,58.866,18.516Zm4.028,0a4.528,4.528,0,1,1,9.051,0c0,2.915-1.756,4.68-4.526,4.68s-4.508-1.7-4.508-4.68Zm6.173,0c0-1.6-.634-2.543-1.62-2.543s-1.611.905-1.611,2.543.615,2.534,1.611,2.534,1.638-.9,1.638-2.525Zm4.055-6.6a1.484,1.484,0,1,1,1.484,1.421,1.43,1.43,0,0,1-1.466-1.412Zm0,2.136h2.942v8.925h-2.9Zm13.523,4.462c0,2.905-1.3,4.589-3.521,4.589a2.779,2.779,0,0,1-2.715-1.656h-.054v4.4H77.449V14.081h2.887v1.593h.054a2.8,2.8,0,0,1,2.715-1.72c2.281-.018,3.593,1.656,3.593,4.571Zm-2.96,0c0-1.412-.661-2.326-1.684-2.326s-1.665.905-1.674,2.326.652,2.317,1.674,2.317,1.738-.842,1.738-2.308Zm7.92-4.67c2.435,0,3.946,1.15,3.964,3H92.917c0-.643-.534-1.041-1.331-1.041s-1.177.308-1.177.769.335.606,1,.742l1.865.38c1.81.38,2.534,1.1,2.534,2.453,0,1.81-1.674,3.041-4.164,3.041s-4.109-1.195-4.227-3.014h2.815c.081.661.606,1.05,1.457,1.05s1.249-.272,1.249-.751-.272-.561-.968-.706l-1.684-.353c-1.747-.371-2.661-1.285-2.661-2.652.054-1.774,1.575-2.905,4.028-2.905Zm13.939,9.124h-2.815V21.295h-.054a2.553,2.553,0,0,1-2.6,1.856,3.105,3.105,0,0,1-3.2-3.358V14.063h2.905v5.1c0,1.05.552,1.62,1.457,1.62a1.487,1.487,0,0,0,1.416-1.073,1.5,1.5,0,0,0,.042-.628V14.063h2.9Zm1.4-8.915h2.824v1.72h.063a2.588,2.588,0,0,1,2.543-1.883,2.318,2.318,0,0,1,2.48,1.892h.127a2.716,2.716,0,0,1,2.715-1.892,2.825,2.825,0,0,1,2.924,3.032v6.055H117.7V17.665c0-.905-.425-1.412-1.249-1.412a1.266,1.266,0,0,0-1.276,1.439v5.286H112.4v-5.34c0-.905-.444-1.385-1.24-1.385a1.291,1.291,0,0,0-1.246.912,1.28,1.28,0,0,0-.048.546v5.268h-2.905Z" transform="translate(-5.934 -3.002)" fill="#d9d4d4"/>
  <path id="Path_7" data-name="Path 7" d="M29.348,11.173A8.943,8.943,0,0,0,13.816,5.126H2.52V28.967H26.37V17.825a8.933,8.933,0,0,0,2.978-6.653Zm-4.589,0a4.363,4.363,0,1,1-1.281-3.079,4.363,4.363,0,0,1,1.281,3.079ZM21.781,24.378H7.109V9.715H11.58a8.647,8.647,0,0,0-.136,1.457A8.961,8.961,0,0,0,20.4,20.124a8.753,8.753,0,0,0,1.385-.118Z" transform="translate(-2.52 -2.23)" fill="#d9d4d4"/>
</svg>
