<svg id="logoipsum-logo-3" xmlns="http://www.w3.org/2000/svg" width="106.513" height="21.374" viewBox="0 0 106.513 21.374">
  <path id="Path_8" data-name="Path 8" d="M44.612,24.128a2.4,2.4,0,0,1-1.512-.434,1.412,1.412,0,0,1-.57-1.186V14.117a.235.235,0,0,1,.262-.262h1.521c.172,0,.253.091.253.262v7.739c0,.344.154.516.471.516a1.3,1.3,0,0,0,.4-.045c.181,0,.281.054.29.217l.136,1.131a.235.235,0,0,1-.217.281A3.409,3.409,0,0,1,44.612,24.128Z" transform="translate(-10.371 -6.745)" fill="#d9d4d4"/>
  <path id="Path_9" data-name="Path 9" d="M53.6,23.5a4.263,4.263,0,0,1-5.431,0,3.621,3.621,0,0,1,0-5.1,4.281,4.281,0,0,1,5.431,0,3.675,3.675,0,0,1,0,5.087Zm-4-1.195a1.928,1.928,0,0,0,2.589,0,2.028,2.028,0,0,0,0-2.661,1.928,1.928,0,0,0-2.589,0,2.028,2.028,0,0,0,0,2.661Z" transform="translate(-10.806 -7.085)" fill="#d9d4d4"/>
  <path id="Path_10" data-name="Path 10" d="M63.9,17.663c.172,0,.253.091.253.262v6.49a2.951,2.951,0,0,1-1,2.326,3.8,3.8,0,0,1-2.634.905,4.236,4.236,0,0,1-2.453-.679,2.715,2.715,0,0,1-1.186-1.81c0-.181,0-.262.244-.262h1.521a.335.335,0,0,1,.3.208,1.186,1.186,0,0,0,.552.643,2.117,2.117,0,0,0,1.014.235,1.6,1.6,0,0,0,1.168-.416,1.538,1.538,0,0,0,.425-1.131v-.57a3.032,3.032,0,0,1-1.883.588,3.511,3.511,0,0,1-2.571-.987,3.621,3.621,0,0,1,0-5.033,3.54,3.54,0,0,1,2.571-.978,3.041,3.041,0,0,1,1.928.625v-.145a.235.235,0,0,1,.253-.262ZM60.386,22.84a1.593,1.593,0,0,0,1.24-.534,2.217,2.217,0,0,0,0-2.715,1.584,1.584,0,0,0-1.231-.525,1.629,1.629,0,0,0-1.258.534,1.919,1.919,0,0,0-.489,1.358,1.956,1.956,0,0,0,.48,1.349,1.638,1.638,0,0,0,1.258.534Z" transform="translate(-11.708 -7.087)" fill="#d9d4d4"/>
  <path id="Path_11" data-name="Path 11" d="M72.894,23.5a4.281,4.281,0,0,1-5.431,0,3.684,3.684,0,0,1,0-5.1,4.29,4.29,0,0,1,5.431,0,3.675,3.675,0,0,1,0,5.087ZM68.884,22.3a1.9,1.9,0,0,0,2.6,0,2.055,2.055,0,0,0,0-2.661,1.9,1.9,0,0,0-2.6,0,2.055,2.055,0,0,0,0,2.661Z" transform="translate(-12.639 -7.085)" fill="#d9d4d4"/>
  <path id="Path_12" data-name="Path 12" d="M78.093,15.785a1.312,1.312,0,0,1-1.729,0,1.1,1.1,0,0,1,0-1.593,1.34,1.34,0,0,1,1.729,0,1.1,1.1,0,0,1,0,1.593Zm.19,8.345a2.434,2.434,0,0,1-1.512-.434,1.43,1.43,0,0,1-.561-1.186V17.586a.235.235,0,0,1,.262-.262h1.521c.172,0,.253.091.253.262v4.272q0,.516.462.516a1.4,1.4,0,0,0,.407-.045c.181,0,.281.054.29.217l.136,1.131a.235.235,0,0,1-.217.281A3.427,3.427,0,0,1,78.283,24.13Z" transform="translate(-13.548 -6.747)" fill="#d9d4d4"/>
  <path id="Path_13" data-name="Path 13" d="M85.56,17.444a3.548,3.548,0,0,1,2.589.978,3.711,3.711,0,0,1,0,5.06,3.521,3.521,0,0,1-2.589.987,3.113,3.113,0,0,1-1.892-.588v3.268c0,.172-.091.253-.262.253H81.885a.217.217,0,0,1-.253-.253V19.725a.471.471,0,0,0-.534-.534h-.3q-.3,0-.3-.217V17.906a.29.29,0,0,1,.208-.3,2.717,2.717,0,0,1,.978-.163,1.674,1.674,0,0,1,1.638.905,3.05,3.05,0,0,1,2.236-.905ZM84.148,22.3a1.729,1.729,0,0,0,2.5,0,1.955,1.955,0,0,0,.5-1.385,1.928,1.928,0,0,0-.5-1.385,1.729,1.729,0,0,0-2.5,0,2,2,0,0,0-.48,1.385A2.027,2.027,0,0,0,84.148,22.3Z" transform="translate(-13.973 -7.085)" fill="#d9d4d4"/>
  <path id="Path_14" data-name="Path 14" d="M94.416,24.464A4.363,4.363,0,0,1,92.09,23.9a2.208,2.208,0,0,1-1.05-1.6c0-.181.063-.272.262-.272h1.331a.344.344,0,0,1,.3.2c.19.489.688.733,1.484.733a1.692,1.692,0,0,0,.806-.163.525.525,0,0,0,.308-.444c0-.235-.145-.4-.434-.507a4.9,4.9,0,0,0-1.059-.226,10.074,10.074,0,0,1-1.267-.226,2.081,2.081,0,0,1-1.059-.606,1.937,1.937,0,0,1,.389-2.806,3.73,3.73,0,0,1,2.19-.579,4,4,0,0,1,2.136.534,2.019,2.019,0,0,1,1,1.421q0,.272-.244.272h-1.34a.281.281,0,0,1-.272-.163.905.905,0,0,0-.471-.48,1.593,1.593,0,0,0-.778-.181,1.576,1.576,0,0,0-.769.154.453.453,0,0,0-.29.416.579.579,0,0,0,.434.534,4.9,4.9,0,0,0,1.077.272,11.868,11.868,0,0,1,1.258.235,2.082,2.082,0,0,1,1.059.606,1.711,1.711,0,0,1,.444,1.24,1.81,1.81,0,0,1-.842,1.575A3.955,3.955,0,0,1,94.416,24.464Z" transform="translate(-14.973 -7.082)" fill="#d9d4d4"/>
  <path id="Path_15" data-name="Path 15" d="M107.912,24.039a.248.248,0,0,1,0,.1.244.244,0,0,1-.042.088.238.238,0,0,1-.072.065.244.244,0,0,1-.091.032,3.491,3.491,0,0,1-1.023.172,2.01,2.01,0,0,1-1.81-.787,3.276,3.276,0,0,1-2.308.787,2.807,2.807,0,0,1-2.118-.824,2.968,2.968,0,0,1-.806-2.181V17.947c0-.172.081-.262.253-.262h1.521c.172,0,.253.091.253.262v3.268a1.6,1.6,0,0,0,.389,1.113,1.357,1.357,0,0,0,1.041.425,1.5,1.5,0,0,0,1.086-.4,1.451,1.451,0,0,0,.407-1.077V17.947c0-.172.081-.262.253-.262h1.539c.172,0,.253.091.253.262V22.21c0,.353.154.525.453.525a1.428,1.428,0,0,0,.416-.045.236.236,0,0,1,.2.036.24.24,0,0,1,.07.079.247.247,0,0,1,.027.1Z" transform="translate(-15.789 -7.109)" fill="#d9d4d4"/>
  <path id="Path_16" data-name="Path 16" d="M123.223,24.015a.229.229,0,0,1,0,.1.237.237,0,0,1-.041.09.223.223,0,0,1-.075.065.221.221,0,0,1-.1.027,3.51,3.51,0,0,1-1.041.172,2.416,2.416,0,0,1-1.512-.434,1.413,1.413,0,0,1-.606-1.186V20.721a1.6,1.6,0,0,0-.38-1.113,1.285,1.285,0,0,0-1.014-.425,1.13,1.13,0,0,0-.905.4,1.61,1.61,0,0,0-.344,1.068v3.34c0,.172-.081.262-.253.262h-1.53a.237.237,0,0,1-.2-.067.236.236,0,0,1-.056-.09.232.232,0,0,1-.011-.105V20.721a1.676,1.676,0,0,0-.353-1.113,1.178,1.178,0,0,0-.905-.425,1.313,1.313,0,0,0-1,.4,1.5,1.5,0,0,0-.371,1.068v3.34a.232.232,0,0,1-.011.105.236.236,0,0,1-.146.146.239.239,0,0,1-.106.011H110.8c-.172,0-.253-.091-.253-.262V19.725a.471.471,0,0,0-.133-.4.47.47,0,0,0-.4-.133h-.3q-.3,0-.3-.217V17.906a.291.291,0,0,1,.208-.3,2.718,2.718,0,0,1,.978-.163,1.7,1.7,0,0,1,1.611.833,3.059,3.059,0,0,1,2.3-.833,2.6,2.6,0,0,1,2.145.959,2.988,2.988,0,0,1,2.371-.959,2.862,2.862,0,0,1,2.145.824,2.955,2.955,0,0,1,.806,2.181V22.2c0,.344.154.516.444.516a1.358,1.358,0,0,0,.416-.045q.281,0,.3.217Z" transform="translate(-16.717 -7.085)" fill="#d9d4d4"/>
  <path id="Path_17" data-name="Path 17" d="M7.371,15.4a12.391,12.391,0,0,1,24.049,0H30.334A8.771,8.771,0,0,0,25.2,16.965a2.585,2.585,0,0,1-.272.172H24.8a2.585,2.585,0,0,1-.272-.172,9.205,9.205,0,0,0-10.273,0,2.585,2.585,0,0,1-.272.172h-.127a2.585,2.585,0,0,1-.272-.172A8.771,8.771,0,0,0,8.457,15.4Zm21.008,5.675a3.05,3.05,0,0,1,1.955-.643h1.457V17.527H30.334a5.775,5.775,0,0,0-3.467,1.1,3.295,3.295,0,0,1-3.91,0,6.155,6.155,0,0,0-7.033,0,3.295,3.295,0,0,1-3.91,0,5.775,5.775,0,0,0-3.512-1.1H7v2.905H8.457a3.05,3.05,0,0,1,1.955.643,6.137,6.137,0,0,0,7.024,0,3.069,3.069,0,0,1,1.955-.643,3.032,3.032,0,0,1,1.955.643,6.155,6.155,0,0,0,7.033,0Zm0,5.2a3.051,3.051,0,0,1,1.955-.643h1.457V22.722H30.334a5.775,5.775,0,0,0-3.467,1.1,3.295,3.295,0,0,1-3.91,0,6.155,6.155,0,0,0-7.033,0,3.295,3.295,0,0,1-3.91,0,5.775,5.775,0,0,0-3.512-1.1H7v2.905H8.457a3.05,3.05,0,0,1,1.955.643,6.137,6.137,0,0,0,7.024,0,3.069,3.069,0,0,1,1.955-.643,3.032,3.032,0,0,1,1.955.643,6.155,6.155,0,0,0,7.033,0Z" transform="translate(-7 -6)" fill="#d9d4d4"/>
</svg>
