<svg id="logoipsum-logo-6" xmlns="http://www.w3.org/2000/svg" width="117.368" height="26.43" viewBox="0 0 117.368 26.43">
  <path id="Path_20" data-name="Path 20" d="M14.179,6.247V2.4H2.05V28.83H14.179V24.983a9.368,9.368,0,1,1,0-18.736Z" transform="translate(-2.05 -2.4)" fill="#d9d4d4"/>
  <path id="Path_21" data-name="Path 21" d="M15.45,6.65V25.386a9.368,9.368,0,1,0,0-18.736Z" transform="translate(-3.321 -2.803)" fill="#d9d4d4"/>
  <path id="Path_22" data-name="Path 22" d="M33.32,9.25h2.715V22.329H33.32Z" transform="translate(-5.017 -3.05)" fill="#d9d4d4"/>
  <path id="Path_23" data-name="Path 23" d="M38,18.252A4.752,4.752,0,1,1,42.725,23,4.689,4.689,0,0,1,38,18.252Zm6.807,0a2.064,2.064,0,1,0-2.064,2.118,2.009,2.009,0,0,0,2.046-2.118Z" transform="translate(-5.461 -3.453)" fill="#d9d4d4"/>
  <path id="Path_24" data-name="Path 24" d="M59.287,13.779V22.3c0,3.005-2.353,4.281-4.734,4.281A4.526,4.526,0,0,1,50.308,24.4l2.29-1.321a2.055,2.055,0,0,0,2.046,1.131A1.81,1.81,0,0,0,56.671,22.3v-.824a3.2,3.2,0,0,1-2.616,1.159,4.526,4.526,0,0,1,0-9.051,3.2,3.2,0,0,1,2.616,1.159v-.905Zm-2.616,4.3A2.172,2.172,0,1,0,54.5,20.16a2.028,2.028,0,0,0,2.172-2.082Z" transform="translate(-6.555 -3.46)" fill="#d9d4d4"/>
  <path id="Path_25" data-name="Path 25" d="M62,18.252A4.752,4.752,0,1,1,66.743,23,4.7,4.7,0,0,1,62,18.252Zm6.807,0a2.064,2.064,0,1,0-2.055,2.118A2.009,2.009,0,0,0,68.8,18.252Z" transform="translate(-7.738 -3.453)" fill="#d9d4d4"/>
  <path id="Path_26" data-name="Path 26" d="M73.87,10.981a1.611,1.611,0,1,1,1.611,1.611,1.629,1.629,0,0,1-1.611-1.611Zm.262,2.4h2.715V22.34H74.132Z" transform="translate(-8.864 -3.061)" fill="#d9d4d4"/>
  <path id="Path_27" data-name="Path 27" d="M88.978,18.254a4.526,4.526,0,0,1-4.317,4.752,3.367,3.367,0,0,1-2.715-1.1v4.426H79.23V13.774h2.715v.842a3.358,3.358,0,0,1,2.715-1.086,4.526,4.526,0,0,1,4.317,4.725Zm-2.715,0a2.136,2.136,0,1,0-2.127,2.19,2.046,2.046,0,0,0,2.127-2.19Z" transform="translate(-9.372 -3.455)" fill="#d9d4d4"/>
  <path id="Path_28" data-name="Path 28" d="M98.335,20.046c0,2.064-1.81,2.942-3.729,2.942a3.928,3.928,0,0,1-3.856-2.136l2.335-1.321A1.466,1.466,0,0,0,94.6,20.59c.643,0,.968-.2.968-.561,0-.987-4.408-.462-4.408-3.566,0-1.955,1.647-2.933,3.512-2.933a3.928,3.928,0,0,1,3.548,1.91L95.882,16.67a1.321,1.321,0,0,0-1.2-.787c-.471,0-.751.181-.751.5C93.927,17.413,98.335,16.734,98.335,20.046Z" transform="translate(-10.465 -3.456)" fill="#d9d4d4"/>
  <path id="Path_29" data-name="Path 29" d="M109.1,13.8v8.961H106.38v-.842a3.085,3.085,0,0,1-2.552,1.113c-1.81,0-3.358-1.294-3.358-3.711V13.8h2.715v5.114a1.473,1.473,0,0,0,.074.633,1.485,1.485,0,0,0,1.492,1,1.585,1.585,0,0,0,1.665-1.81V13.8Z" transform="translate(-11.387 -3.482)" fill="#d9d4d4"/>
  <path id="Path_30" data-name="Path 30" d="M125.583,17.231v5.5h-2.715V17.466c0-.905-.425-1.466-1.285-1.466s-1.4.625-1.4,1.684v5.051h-2.715V17.466c0-.905-.425-1.466-1.285-1.466s-1.4.625-1.4,1.684v5.051H112.06V13.773h2.715V14.6a2.771,2.771,0,0,1,2.408-1.068,2.652,2.652,0,0,1,2.344,1.177,2.952,2.952,0,0,1,2.6-1.177C124.243,13.529,125.583,15,125.583,17.231Z" transform="translate(-12.487 -3.455)" fill="#d9d4d4"/>
  <path id="Path_31" data-name="Path 31" d="M129.311,13.323a1.991,1.991,0,1,0-1.991-1.991A1.991,1.991,0,0,0,129.311,13.323Z" transform="translate(-13.935 -3.058)" fill="#d9d4d4"/>
</svg>
