<svg id="logoipsum-logo-7" xmlns="http://www.w3.org/2000/svg" width="107.508" height="24.548" viewBox="0 0 107.508 24.548">
  <path id="Path_32" data-name="Path 32" d="M36.87,9.992h2.715V20.971H36.87Zm3.792,6.834A3.978,3.978,0,0,1,44.9,12.49a3.978,3.978,0,0,1,4.236,4.336A3.967,3.967,0,0,1,44.9,21.171C42.292,21.171,40.662,19.587,40.662,16.826Zm5.748,0c0-1.493-.588-2.371-1.512-2.371s-1.5.905-1.5,2.371.57,2.353,1.5,2.353,1.512-.833,1.512-2.344Zm3.747,4.68h2.607a1.4,1.4,0,0,0,1.466.815c1.032,0,1.575-.561,1.575-1.376V19.424h-.054a2.57,2.57,0,0,1-2.471,1.484c-1.982,0-3.295-1.512-3.295-4.109s1.249-4.236,3.331-4.236a2.6,2.6,0,0,1,2.5,1.593h0V12.644H58.53v8.237c0,1.982-1.747,3.213-4.327,3.213-2.4,0-3.892-1.077-4.046-2.58Zm5.657-4.689c0-1.321-.606-2.154-1.566-2.154s-1.548.824-1.548,2.154S53.28,18.9,54.248,18.9s1.566-.733,1.566-2.073Zm3.738,0a4.242,4.242,0,1,1,8.481,0,3.97,3.97,0,0,1-4.245,4.345c-2.616,0-4.236-1.575-4.236-4.336Zm5.748,0c0-1.493-.588-2.371-1.512-2.371s-1.457.914-1.457,2.39.57,2.353,1.493,2.353,1.475-.842,1.475-2.353Zm3.765-6.146a1.385,1.385,0,1,1,1.412,1.349,1.322,1.322,0,0,1-1.412-1.331Zm0,1.991h2.715v8.309H69.065Zm12.572,4.155c0,2.715-1.2,4.263-3.268,4.263a2.589,2.589,0,0,1-2.534-1.539h-.054v4.091H73.066V12.644h2.715v1.484h.054a2.6,2.6,0,0,1,2.516-1.6c2.082.036,3.322,1.593,3.322,4.308Zm-2.715,0c0-1.321-.606-2.163-1.557-2.163s-1.557.851-1.566,2.163.615,2.154,1.566,2.154,1.557-.824,1.557-2.136ZM86.3,12.472c2.254,0,3.621,1.068,3.684,2.779H87.512c0-.588-.489-.959-1.24-.959s-1.086.29-1.086.715.3.561.905.688l1.738.353c1.656.353,2.362,1.023,2.362,2.281,0,1.72-1.566,2.824-3.874,2.824s-3.82-1.1-3.937-2.8H85c.081.615.57.978,1.367.978s1.159-.262,1.159-.7-.253-.525-.905-.661l-1.566-.335c-1.62-.335-2.471-1.195-2.471-2.462.018-1.629,1.475-2.688,3.72-2.688Zm12.952,8.481H96.636V19.406h-.054a2.362,2.362,0,0,1-2.408,1.729,2.887,2.887,0,0,1-3.041-3.123V12.644h2.715v4.743c0,.987.507,1.512,1.349,1.512a1.385,1.385,0,0,0,1.376-1.566V12.644h2.715Zm1.312-8.309h2.625v1.6h.054a2.408,2.408,0,0,1,2.362-1.756,2.163,2.163,0,0,1,2.308,1.81h.054a2.553,2.553,0,0,1,2.552-1.81,2.633,2.633,0,0,1,2.715,2.824v5.657H110.52V16.038c0-.905-.407-1.321-1.168-1.321a1.185,1.185,0,0,0-1.186,1.34v4.915h-2.58V16c0-.833-.407-1.285-1.15-1.285a1.212,1.212,0,0,0-1.2,1.358v4.9h-2.715Z" transform="translate(-5.735 -3.076)" fill="#d9d4d4"/>
  <path id="Path_33" data-name="Path 33" d="M26.012,9.843A11.991,11.991,0,0,0,24.2,6.928,12.246,12.246,0,1,0,7.294,24.415a11.848,11.848,0,0,0,2.9,1.656,12.12,12.12,0,0,0,4.589.905A12.273,12.273,0,0,0,27.026,14.712a12.12,12.12,0,0,0-1.014-4.87ZM14.771,4.928a9.694,9.694,0,0,1,4.091.905h0a3.973,3.973,0,0,1-.978.281,5.186,5.186,0,0,0-4.39,4.39,2.715,2.715,0,0,1-2.453,2.4,5.186,5.186,0,0,0-4.39,4.39,2.634,2.634,0,0,1-.715,1.575h0A9.775,9.775,0,0,1,14.78,4.91ZM7.285,21.048c.109-.1.217-.19.326-.3a4.96,4.96,0,0,0,1.466-2.924,2.643,2.643,0,0,1,.787-1.647A2.562,2.562,0,0,1,11.5,15.4a5.187,5.187,0,0,0,4.39-4.39,2.643,2.643,0,0,1,.787-1.729,2.6,2.6,0,0,1,1.656-.751,4.96,4.96,0,0,0,2.715-1.294,9.512,9.512,0,0,1,2.136,2.516.78.78,0,0,1-.118.127,2.6,2.6,0,0,1-1.638.8,5.168,5.168,0,0,0-4.39,4.39,2.715,2.715,0,0,1-2.435,2.426,5.213,5.213,0,0,0-4.417,4.39,2.843,2.843,0,0,1-.444,1.24,9.857,9.857,0,0,1-2.462-2.073Zm7.485,3.494a9.813,9.813,0,0,1-2.715-.38,5.231,5.231,0,0,0,.579-1.81,2.715,2.715,0,0,1,2.426-2.426,5.186,5.186,0,0,0,4.4-4.39,2.715,2.715,0,0,1,2.426-2.426,5.168,5.168,0,0,0,2.317-.905A9.793,9.793,0,0,1,14.771,24.5Z" transform="translate(-2.471 -2.429)" fill="#d9d4d4"/>
</svg>
